<svg width="30" height="27" viewBox="0 0 30 27" fill="none" xmlns="http://www.w3.org/2000/svg">
<path d="M5.66657 14.5833C5.66657 16.7812 6.55287 18.772 7.98756 20.2179C8.12593 20.3574 8.19511 20.4271 8.23595 20.4942C8.27491 20.5581 8.2976 20.6132 8.315 20.6861C8.33324 20.7624 8.33324 20.8493 8.33324 21.0231V24.1833C8.33324 24.5567 8.33324 24.7434 8.4059 24.886C8.46982 25.0114 8.5718 25.1134 8.69724 25.1773C8.83985 25.25 9.02654 25.25 9.39991 25.25H11.9332C12.3066 25.25 12.4933 25.25 12.6359 25.1773C12.7613 25.1134 12.8633 25.0114 12.9272 24.886C12.9999 24.7434 12.9999 24.5567 12.9999 24.1833V23.65C12.9999 23.2766 12.9999 23.0899 13.0726 22.9473C13.1365 22.8219 13.2385 22.7199 13.3639 22.656C13.5065 22.5833 13.6932 22.5833 14.0666 22.5833H15.9332C16.3066 22.5833 16.4933 22.5833 16.6359 22.656C16.7613 22.7199 16.8633 22.8219 16.9272 22.9473C16.9999 23.0899 16.9999 23.2766 16.9999 23.65V24.1833C16.9999 24.5567 16.9999 24.7434 17.0726 24.886C17.1365 25.0114 17.2385 25.1134 17.3639 25.1773C17.5065 25.25 17.6932 25.25 18.0666 25.25H20.6C20.9734 25.25 21.1601 25.25 21.3027 25.1773C21.4281 25.1134 21.5301 25.0114 21.594 24.886C21.6667 24.7434 21.6667 24.5567 21.6667 24.1833V22.8824C21.6667 22.613 21.6667 22.4783 21.705 22.3702C21.7418 22.2665 21.7881 22.194 21.8666 22.117C21.9485 22.0367 22.0873 21.9722 22.3649 21.8434C23.6745 21.2354 24.7921 20.2834 25.6015 19.1036C25.7438 18.8961 25.815 18.7923 25.891 18.7311C25.9637 18.6725 26.0289 18.6381 26.1183 18.6113C26.2119 18.5833 26.3229 18.5833 26.545 18.5833H27.2667C27.64 18.5833 27.8267 18.5833 27.9693 18.5107C28.0948 18.4468 28.1968 18.3448 28.2607 18.2193C28.3333 18.0767 28.3333 17.89 28.3333 17.5167V12.9643C28.3333 12.6089 28.3333 12.4312 28.2673 12.294C28.2018 12.158 28.092 12.0482 27.956 11.9827C27.8188 11.9167 27.6411 11.9167 27.2857 11.9167C27.0284 11.9167 26.8997 11.9167 26.7961 11.8817C26.6844 11.8441 26.606 11.794 26.525 11.7084C26.4498 11.629 26.3884 11.4962 26.2657 11.2306C25.8717 10.3783 25.3322 9.60703 24.679 8.94872C24.5406 8.80927 24.4715 8.73955 24.4306 8.6725C24.3917 8.60852 24.369 8.55345 24.3516 8.48059C24.3333 8.40423 24.3333 8.31734 24.3333 8.14357V6.6641C24.3333 6.18404 24.3333 5.94401 24.2334 5.78267C24.1458 5.64134 24.0086 5.53784 23.8486 5.49246C23.666 5.44066 23.4352 5.5066 22.9736 5.63848L19.8102 6.54229C19.7565 6.55765 19.7296 6.56533 19.7023 6.57072C19.678 6.57551 19.6535 6.57895 19.6288 6.58101C19.601 6.58333 19.5731 6.58333 19.5172 6.58333H18.9454M5.66657 14.5833C5.66657 11.5112 7.39819 8.84361 9.93862 7.50321M5.66657 14.5833H4.33333C2.86057 14.5833 1.66666 13.3894 1.66666 11.9167C1.66666 10.9296 2.20293 10.0678 3 9.60675M19 5.91667C19 8.494 16.9107 10.5833 14.3333 10.5833C11.756 10.5833 9.66666 8.494 9.66666 5.91667C9.66666 3.33934 11.756 1.25 14.3333 1.25C16.9107 1.25 19 3.33934 19 5.91667Z" stroke="#437D8E" stroke-width="2.5" stroke-linecap="round" stroke-linejoin="round"/>
</svg>
